<!-- icon666.com - MILLIONS vector ICONS FREE --><svg xmlns="http://www.w3.org/2000/svg" viewBox="0 0 64 64"><g id="Layer_16" data-name="Layer 16"><path d="M39,13H25a1,1,0,0,0,0,2H39a1,1,0,0,0,0-2Z" fill="#000000" style="fill: rgb(255, 255, 255);"></path><path d="M51,32H47a1,1,0,0,0,0,2h4a1,1,0,0,0,0-2Z" fill="#000000" style="fill: rgb(255, 255, 255);"></path><path d="M14,34h4a1,1,0,0,0,0-2H14a1,1,0,0,0,0,2Z" fill="#000000" style="fill: rgb(255, 255, 255);"></path><path d="M6,52h4a1,1,0,0,0,0-2H6a1,1,0,0,0,0,2Z" fill="#000000" style="fill: rgb(255, 255, 255);"></path><path d="M22,52h4a1,1,0,0,0,0-2H22a1,1,0,0,0,0,2Z" fill="#000000" style="fill: rgb(255, 255, 255);"></path><path d="M62,45H57V42a1,1,0,0,0-1-1H49V39h6a1,1,0,0,0,1-1V28a1,1,0,0,0-1-1H50V24a1,1,0,0,0-1-1H33V21H43a1,1,0,0,0,1-1V8a1,1,0,0,0-1-1H21a1,1,0,0,0-1,1V20a1,1,0,0,0,1,1H31v2H16a1,1,0,0,0-1,1v3H10a1,1,0,0,0-1,1V38a1,1,0,0,0,1,1h5v2H8a1,1,0,0,0-1,1v3H2a1,1,0,0,0-1,1V56a1,1,0,0,0,1,1H14a1,1,0,0,0,1-1V46a1,1,0,0,0-1-1H9V43H23v2H18a1,1,0,0,0-1,1V56a1,1,0,0,0,1,1H30a1,1,0,0,0,1-1V46a1,1,0,0,0-1-1H25V42a1,1,0,0,0-1-1H17V39h5a1,1,0,0,0,1-1V28a1,1,0,0,0-1-1H17V25H48v2H43a1,1,0,0,0-1,1V38a1,1,0,0,0,1,1h4v2H40a1,1,0,0,0-1,1v3H34a1,1,0,0,0-1,1V56a1,1,0,0,0,1,1H46a1,1,0,0,0,1-1V46a1,1,0,0,0-1-1H41V43H55v2H50a1,1,0,0,0-1,1V56a1,1,0,0,0,1,1H62a1,1,0,0,0,1-1V46A1,1,0,0,0,62,45ZM22,9H42V19H22ZM13,55H3V47H13Zm16,0H19V47H29ZM21,37H11V29H21Zm23-8H54v8H44Zm1,26H35V47H45Zm16,0H51V47H61Z" fill="#000000" style="fill: rgb(255, 255, 255);"></path><path d="M38,52h4a1,1,0,0,0,0-2H38a1,1,0,0,0,0,2Z" fill="#000000" style="fill: rgb(255, 255, 255);"></path><path d="M54,52h4a1,1,0,0,0,0-2H54a1,1,0,0,0,0,2Z" fill="#000000" style="fill: rgb(255, 255, 255);"></path></g></svg>